<?xml version="1.0" encoding="utf-8"?>
<!-- Generator: Adobe Illustrator 26.0.3, SVG Export Plug-In . SVG Version: 6.00 Build 0)  -->
<svg version="1.1" id="Layer_1" xmlns="http://www.w3.org/2000/svg" xmlns:xlink="http://www.w3.org/1999/xlink" x="0px" y="0px"
	 viewBox="0 0 512 512" style="enable-background:new 0 0 512 512;" xml:space="preserve">
<style type="text/css">
	.st0{fill-rule:evenodd;clip-rule:evenodd;fill:#F55A5A;}
</style>
<path class="st0" d="M265.7,281.2c-49,0-88.6-39.7-88.6-88.6c0-48.9,39.6-88.6,88.6-88.6c49,0,88.6,39.7,88.6,88.6
	C354.3,241.5,314.6,281.2,265.7,281.2 M260.6,2.7c-103,0-184.8,86.8-184.8,193.9c0,146,156.5,296.8,156.5,296.8
	c21.1,19.9,34.1,21.6,56.5,0c0,0,158.3-150.9,158.3-296.8C447.1,89.5,363.6,2.7,260.6,2.7"/>
</svg>
