<?xml version="1.0" encoding="utf-8"?>
<!-- Generator: Adobe Illustrator 26.0.3, SVG Export Plug-In . SVG Version: 6.00 Build 0)  -->
<svg version="1.1" id="Layer_1" xmlns="http://www.w3.org/2000/svg" xmlns:xlink="http://www.w3.org/1999/xlink" x="0px" y="0px"
	 viewBox="0 0 512 512" style="enable-background:new 0 0 512 512;" xml:space="preserve">
<style type="text/css">
	.st0{fill:#FFFFFF;}
</style>
<path class="st0" d="M512,256c0,141.4-114.6,256-256,256S0,397.4,0,256S114.6,0,256,0S512,114.6,512,256z M51.7,295.1l31.7,6.4
	c7.9,1.6,16-0.9,21.7-6.6l15.4-15.4c11.5-12.4,31.1-8.4,38.4,6.3l9.3,18.5c3.9,9.6,14.6,14.8,25.3,14.8c15.2,0,26.1-13.7,21.7-28.3
	l-5.9-19.9c-4.7-15.4,6.9-30.9,23-30.9h2.3c12.5,0,25.9-6.7,33.3-17.8l10.7-16.1c5.6-8.4,5.3-19.5-0.8-27.7l-16.1-21.5
	c-10.3-13.7-3.3-33.5,13.4-37.7l17-5.1c7.5-1,13.6-6.3,16.5-13.5l16.3-40.9C303.4,52.1,280.2,48,255.1,48c-114,0-208,93.1-208,208
	C47.1,269.4,49.3,282.5,51.7,295.1L51.7,295.1z M450.4,300.4l-15.8,4.5c-6.7,1.8-13.8-0.9-17.5-6.7l-2-3.1c-6-9.4-16.4-16-27.6-16
	c-11.1,0-22.4,6.6-27.6,16l-6.1,9.5c-1.4,2.2-3.3,4.1-5.6,4.5l-37.1,21c-17.2,10.1-24.6,32.4-17,51.3l6.4,12.4
	c8.6,19.2,30.7,28.5,49.6,21.1l3.4-1.8c10.1-2.9,21.3-1.3,30,5l1.5,1.1c37.2-29.5,64.1-71.4,74.4-119.5
	C456.4,299.4,453.4,299.6,450.4,300.4L450.4,300.4z M156.1,367.5l32,8c8.6,2.2,17.3-3,19.4-11.6c2.2-8.6-3-17.3-11.6-19.4l-32-8
	c-8.6-2.2-17.3,3-19.4,11.6C142.3,356.7,147.5,365.4,156.1,367.5L156.1,367.5z M236.5,328.1c-2.2,8.6,3,17.3,11.6,19.4
	c8.6,2.2,17.3-3,19.4-11.6l8-32c2.2-8.6-3-17.3-11.6-19.4c-8.6-2.2-17.3,3-19.4,11.6L236.5,328.1z M321.7,120.8l-16,32
	c-4,7.9-0.8,17.6,7.1,21.5c7.9,4,17.6,0.8,21.5-7.1l16-32c4-7.9,0.8-17.6-7.1-21.5C335.3,109.7,325.6,112.9,321.7,120.8L321.7,120.8
	z"/>
</svg>
